<?xml version="1.0" encoding="UTF-8"?>
<svg xmlns="http://www.w3.org/2000/svg" viewBox="0 0 64 64">
  <defs>
    <linearGradient id="g" x1="0" y1="0" x2="1" y2="1">
      <stop offset="0" stop-color="#00bfa5"/>
      <stop offset="1" stop-color="#35e1cb"/>
    </linearGradient>
  </defs>
  <circle cx="32" cy="32" r="30" fill="#0e2230" stroke="#00bfa5" stroke-width="2"/>
  <path d="M 32.00,32.00 L 32.23,32.03 L 32.44,32.11 L 32.64,32.24 L 32.80,32.43 L 32.93,32.65 L 33.01,32.91 L 33.04,33.20 L 33.01,33.50 L 32.93,33.82 L 32.78,34.13 L 32.56,34.43 L 32.28,34.70 L 31.95,34.94 L 31.56,35.14 L 31.12,35.28 L 30.64,35.36 L 30.14,35.36 L 29.61,35.29 L 29.07,35.14 L 28.54,34.90 L 28.03,34.58 L 27.54,34.17 L 27.10,33.69 L 26.71,33.12 L 26.39,32.49 L 26.15,31.80 L 26.01,31.05 L 25.95,30.27 L 26.01,29.46 L 26.17,28.64 L 26.45,27.82 L 26.84,27.02 L 27.35,26.26 L 27.97,25.55 L 28.70,24.91 L 29.52,24.36 L 30.43,23.90 L 31.41,23.56 L 32.45,23.33 L 33.54,23.24 L 34.66,23.29 L 35.79,23.49 L 36.91,23.83 L 38.00,24.32 L 39.04,24.96 L 40.01,25.75 L 40.89,26.66 L 41.66,27.70 L 42.31,28.85 L 42.82,30.09 L 43.18,31.41 L 43.37,32.80 L 43.39,34.21 L 43.23,35.65 L 42.88,37.07 L 42.35,38.47 L 41.64,39.81 L 40.76,41.07 L 39.71,42.22 L 38.50,43.26 L 37.16,44.15 L 35.69,44.87 L 34.13,45.42 L 32.48,45.77 L 30.78,45.92 L 29.06,45.85 L 27.33,45.57 L 25.63,45.07 L 23.98,44.35 L 22.41,43.42 L 20.96,42.30 L 19.64,40.98 L 18.47,39.50 L 17.49,37.86 L 16.71,36.10 L 16.15,34.23 L 15.82,32.28 L 15.73,30.29 L 15.89,28.28 L 16.30,26.28 L 16.95,24.33 L 17.86,22.46 L 19.00,20.70 L 20.36,19.07 L 21.92,17.61 L 23.68,16.34 L 25.59,15.29 L 27.63,14.48 L 29.78,13.91 L 32.00,13.62 L 34.26,13.59 L 36.52,13.85 L 38.76,14.39 L 40.93,15.21 L 43.00,16.30 L 44.93,17.64 L 46.70,19.22 L 48.27,21.03 L 49.62,23.02 L 50.72,25.19 L 51.55,27.49 L 52.10,29.89 L 52.34,32.36 L 52.29,34.85 L 51.92,37.34 L 51.25,39.78 L 50.28,42.13 L 49.02,44.36 L 47.48,46.44 L 45.69,48.32 L 43.67,49.97 L 41.45,51.37 L 39.06,52.50 L 36.53,53.33 L 33.91,53.84 L 31.23,54.04 L 28.53,53.90 L 25.86,53.42 L 23.25,52.62 L 20.74,51.50 L 18.38,50.07 L 16.20,48.36 L 14.24,46.38 L 12.53,44.17 L 11.10,41.75 L 9.97,39.16 L 9.16,36.44 L 8.69,33.63 L 8.56,30.77 L 8.79,27.91 L 9.37,25.08 L 10.30,22.34 L 11.56,19.72 L 13.14,17.27 L 15.01,15.01 L 17.16,13.00 L 19.54,11.26 L 22.13,9.83 L 24.88,8.71 L 27.76,7.94 L 30.72,7.52 L 33.71,7.48 L 36.70,7.80 L 39.64,8.48 L 42.48,9.53 L 45.18,10.91 L 47.69,12.63 L 49.98,14.64 L 52.01,16.92 L 53.75,19.44 L 55.17,22.16 L 56.25,25.05 L 56.97,28.05 L 57.32,31.12 L 57.29,34.21 L 56.88,37.29 L 56.09,40.29 L 54.94,43.19 L 53.44,45.92 L 51.61,48.46 L 49.49,50.75 L 47.09,52.78 L 44.47,54.49 L 41.64,55.87 L 38.67,56.90 L 35.59,57.56 L 32.45,57.83 L 29.30,57.72 L 26.18,57.22 L 23.14,56.34 L 20.23,55.09 L 17.50,53.50 L 14.97,51.59 L 12.70,49.37 L 10.72,46.90 L 9.06,44.20 L 7.74,41.31 L 6.78,38.29 L 6.19,35.17 L 6.00,32.00 L 6.19,28.83 L 6.78,25.71 L 7.74,22.69 L 9.06,19.80 L 10.72,17.10 L 12.70,14.63 L 14.97,12.41 L 17.50,10.50 L 20.23,8.91 L 23.14,7.66 L 26.18,6.78 L 29.30,6.28 L 32.45,6.17 L 35.59,6.44 L 38.67,7.10 L 41.64,8.13 L 44.47,9.51 L 47.09,11.22 L 49.49,13.25 L 51.61,15.54 L 53.44,18.08 L 54.94,20.81 L 56.09,23.71 L 56.88,26.71 L 57.29,29.79 L 57.32,32.88 L 56.97,35.95 L 56.25,38.95 L 55.17,41.84 L 53.75,44.56 L 52.01,47.08 L 49.98,49.36 L 47.69,51.37 L 45.18,53.09 L 42.48,54.47 L 39.64,55.52 L 36.70,56.20 L 33.71,56.52 L 30.72,56.48 L 27.76,56.06 L 24.88,55.29 L 22.13,54.17 L 19.54,52.74 L 17.16,51.00 L 15.01,48.99 L 13.14,46.73 L 11.56,44.28 L 10.30,41.66 L 9.37,38.92 L 8.79,36.09 L 8.56,33.23 L 8.69,30.37 L 9.16,27.56 L 9.97,24.84 L 11.10,22.25 L 12.53,19.83 L 14.24,17.62 L 16.20,15.64 L 18.38,13.93 L 20.74,12.50 L 23.25,11.38 L 25.86,10.58 L 28.53,10.10 L 31.23,9.96 L 33.91,10.16 L 36.53,10.67 L 39.06,11.50 L 41.45,12.63 L 43.67,14.03 L 45.69,15.68 L 47.48,17.56 L 49.02,19.64 L 50.28,21.87 L 51.25,24.22 L 51.92,26.66 L 52.29,29.15 L 52.34,31.64 L 52.10,34.11 L 51.55,36.51 L 50.72,38.81 L 49.62,40.98 L 48.27,42.97 L 46.70,44.78 L 44.93,46.36 L 43.00,47.70 L 40.93,48.79 L 38.76,49.61 L 36.52,50.15 L 34.26,50.41 L 32.00,50.38 L 29.78,50.09 L 27.63,49.52 L 25.59,48.71 L 23.68,47.66 L 21.92,46.39 L 20.36,44.93 L 19.00,43.30 L 17.86,41.54 L 16.95,39.67 L 16.30,37.72 L 15.89,35.72 L 15.73,33.71 L 15.82,31.72 L 16.15,29.77 L 16.71,27.90 L 17.49,26.14 L 18.47,24.50 L 19.64,23.02 L 20.96,21.70 L 22.41,20.58 L 23.98,19.65 L 25.63,18.93 L 27.33,18.43 L 29.06,18.15 L 30.78,18.08 L 32.48,18.23 L 34.13,18.58 L 35.69,19.13 L 37.16,19.85 L 38.50,20.74 L 39.71,21.78 L 40.76,22.93 L 41.64,24.19 L 42.35,25.53 L 42.88,26.93 L 43.23,28.35 L 43.39,29.79 L 43.37,31.20 L 43.18,32.59 L 42.82,33.91 L 42.31,35.15 L 41.66,36.30 L 40.89,37.34 L 40.01,38.25 L 39.04,39.04 L 38.00,39.68 L 36.91,40.17 L 35.79,40.51 L 34.66,40.71 L 33.54,40.76 L 32.45,40.67 L 31.41,40.44 L 30.43,40.10 L 29.52,39.64 L 28.70,39.09 L 27.97,38.45 L 27.35,37.74 L 26.84,36.98 L 26.45,36.18 L 26.17,35.36 L 26.01,34.54 L 25.95,33.73 L 26.01,32.95 L 26.15,32.20 L 26.39,31.51 L 26.71,30.88 L 27.10,30.31 L 27.54,29.83 L 28.03,29.42 L 28.54,29.10 L 29.07,28.86 L 29.61,28.71 L 30.14,28.64 L 30.64,28.64 L 31.12,28.72 L 31.56,28.86 L 31.95,29.06 L 32.28,29.30 L 32.56,29.57 L 32.78,29.87 L 32.93,30.18 L 33.01,30.50 L 33.04,30.80 L 33.01,31.09 L 32.93,31.35 L 32.80,31.57 L 32.64,31.76 L 32.44,31.89 L 32.23,31.97 L 32.00,32.00 L 31.77,31.97 L 31.56,31.89 L 31.36,31.76 L 31.20,31.57 L 31.07,31.35 L 30.99,31.09 L 30.96,30.80 L 30.99,30.50 L 31.07,30.18 L 31.22,29.87 L 31.44,29.57 L 31.72,29.30 L 32.05,29.06 L 32.44,28.86 L 32.88,28.72 L 33.36,28.64 L 33.86,28.64 L 34.39,28.71 L 34.93,28.86 L 35.46,29.10 L 35.97,29.42 L 36.46,29.83 L 36.90,30.31 L 37.29,30.88 L 37.61,31.51 L 37.85,32.20 L 37.99,32.95 L 38.05,33.73 L 37.99,34.54 L 37.83,35.36 L 37.55,36.18 L 37.16,36.98 L 36.65,37.74 L 36.03,38.45 L 35.30,39.09 L 34.48,39.64 L 33.57,40.10 L 32.59,40.44 L 31.55,40.67 L 30.46,40.76 L 29.34,40.71 L 28.21,40.51 L 27.09,40.17 L 26.00,39.68 L 24.96,39.04 L 23.99,38.25 L 23.11,37.34 L 22.34,36.30 L 21.69,35.15 L 21.18,33.91 L 20.82,32.59 L 20.63,31.20 L 20.61,29.79 L 20.77,28.35 L 21.12,26.93 L 21.65,25.53 L 22.36,24.19 L 23.24,22.93 L 24.29,21.78 L 25.50,20.74 L 26.84,19.85 L 28.31,19.13 L 29.87,18.58 L 31.52,18.23 L 33.22,18.08 L 34.94,18.15 L 36.67,18.43 L 38.37,18.93 L 40.02,19.65 L 41.59,20.58 L 43.04,21.70 L 44.36,23.02 L 45.53,24.50 L 46.51,26.14 L 47.29,27.90 L 47.85,29.77 L 48.18,31.72 L 48.27,33.71 L 48.11,35.72 L 47.70,37.72 L 47.05,39.67 L 46.14,41.54 L 45.00,43.30 L 43.64,44.93 L 42.08,46.39 L 40.32,47.66 L 38.41,48.71 L 36.37,49.52 L 34.22,50.09 L 32.00,50.38 L 29.74,50.41 L 27.48,50.15 L 25.24,49.61 L 23.07,48.79 L 21.00,47.70 L 19.07,46.36 L 17.30,44.78 L 15.73,42.97 L 14.38,40.98 L 13.28,38.81 L 12.45,36.51 L 11.90,34.11 L 11.66,31.64 L 11.71,29.15 L 12.08,26.66 L 12.75,24.22 L 13.72,21.87 L 14.98,19.64 L 16.52,17.56 L 18.31,15.68 L 20.33,14.03 L 22.55,12.63 L 24.94,11.50 L 27.47,10.67 L 30.09,10.16 L 32.77,9.96 L 35.47,10.10 L 38.14,10.58 L 40.75,11.38 L 43.26,12.50 L 45.62,13.93 L 47.80,15.64 L 49.76,17.62 L 51.47,19.83 L 52.90,22.25 L 54.03,24.84 L 54.84,27.56 L 55.31,30.37 L 55.44,33.23 L 55.21,36.09 L 54.63,38.92 L 53.70,41.66 L 52.44,44.28 L 50.86,46.73 L 48.99,48.99 L 46.84,51.00 L 44.46,52.74 L 41.87,54.17 L 39.12,55.29 L 36.24,56.06 L 33.28,56.48 L 30.29,56.52 L 27.30,56.20 L 24.36,55.52 L 21.52,54.47 L 18.82,53.09 L 16.31,51.37 L 14.02,49.36 L 11.99,47.08 L 10.25,44.56 L 8.83,41.84 L 7.75,38.95 L 7.03,35.95 L 6.68,32.88 L 6.71,29.79 L 7.12,26.71 L 7.91,23.71 L 9.06,20.81 L 10.56,18.08 L 12.39,15.54 L 14.51,13.25 L 16.91,11.22 L 19.53,9.51 L 22.36,8.13 L 25.33,7.10 L 28.41,6.44 L 31.55,6.17 L 34.70,6.28 L 37.82,6.78 L 40.86,7.66 L 43.77,8.91 L 46.50,10.50 L 49.03,12.41 L 51.30,14.63 L 53.28,17.10 L 54.94,19.80 L 56.26,22.69 L 57.22,25.71 L 57.81,28.83 L 58.00,32.00 L 57.81,35.17 L 57.22,38.29 L 56.26,41.31 L 54.94,44.20 L 53.28,46.90 L 51.30,49.37 L 49.03,51.59 L 46.50,53.50 L 43.77,55.09 L 40.86,56.34 L 37.82,57.22 L 34.70,57.72 L 31.55,57.83 L 28.41,57.56 L 25.33,56.90 L 22.36,55.87 L 19.53,54.49 L 16.91,52.78 L 14.51,50.75 L 12.39,48.46 L 10.56,45.92 L 9.06,43.19 L 7.91,40.29 L 7.12,37.29 L 6.71,34.21 L 6.68,31.12 L 7.03,28.05 L 7.75,25.05 L 8.83,22.16 L 10.25,19.44 L 11.99,16.92 L 14.02,14.64 L 16.31,12.63 L 18.82,10.91 L 21.52,9.53 L 24.36,8.48 L 27.30,7.80 L 30.29,7.48 L 33.28,7.52 L 36.24,7.94 L 39.12,8.71 L 41.87,9.83 L 44.46,11.26 L 46.84,13.00 L 48.99,15.01 L 50.86,17.27 L 52.44,19.72 L 53.70,22.34 L 54.63,25.08 L 55.21,27.91 L 55.44,30.77 L 55.31,33.63 L 54.84,36.44 L 54.03,39.16 L 52.90,41.75 L 51.47,44.17 L 49.76,46.38 L 47.80,48.36 L 45.62,50.07 L 43.26,51.50 L 40.75,52.62 L 38.14,53.42 L 35.47,53.90 L 32.77,54.04 L 30.09,53.84 L 27.47,53.33 L 24.94,52.50 L 22.55,51.37 L 20.33,49.97 L 18.31,48.32 L 16.52,46.44 L 14.98,44.36 L 13.72,42.13 L 12.75,39.78 L 12.08,37.34 L 11.71,34.85 L 11.66,32.36 L 11.90,29.89 L 12.45,27.49 L 13.28,25.19 L 14.38,23.02 L 15.73,21.03 L 17.30,19.22 L 19.07,17.64 L 21.00,16.30 L 23.07,15.21 L 25.24,14.39 L 27.48,13.85 L 29.74,13.59 L 32.00,13.62 L 34.22,13.91 L 36.37,14.48 L 38.41,15.29 L 40.32,16.34 L 42.08,17.61 L 43.64,19.07 L 45.00,20.70 L 46.14,22.46 L 47.05,24.33 L 47.70,26.28 L 48.11,28.28 L 48.27,30.29 L 48.18,32.28 L 47.85,34.23 L 47.29,36.10 L 46.51,37.86 L 45.53,39.50 L 44.36,40.98 L 43.04,42.30 L 41.59,43.42 L 40.02,44.35 L 38.37,45.07 L 36.67,45.57 L 34.94,45.85 L 33.22,45.92 L 31.52,45.77 L 29.87,45.42 L 28.31,44.87 L 26.84,44.15 L 25.50,43.26 L 24.29,42.22 L 23.24,41.07 L 22.36,39.81 L 21.65,38.47 L 21.12,37.07 L 20.77,35.65 L 20.61,34.21 L 20.63,32.80 L 20.82,31.41 L 21.18,30.09 L 21.69,28.85 L 22.34,27.70 L 23.11,26.66 L 23.99,25.75 L 24.96,24.96 L 26.00,24.32 L 27.09,23.83 L 28.21,23.49 L 29.34,23.29 L 30.46,23.24 L 31.55,23.33 L 32.59,23.56 L 33.57,23.90 L 34.48,24.36 L 35.30,24.91 L 36.03,25.55 L 36.65,26.26 L 37.16,27.02 L 37.55,27.82 L 37.83,28.64 L 37.99,29.46 L 38.05,30.27 L 37.99,31.05 L 37.85,31.80 L 37.61,32.49 L 37.29,33.12 L 36.90,33.69 L 36.46,34.17 L 35.97,34.58 L 35.46,34.90 L 34.93,35.14 L 34.39,35.29 L 33.86,35.36 L 33.36,35.36 L 32.88,35.28 L 32.44,35.14 L 32.05,34.94 L 31.72,34.70 L 31.44,34.43 L 31.22,34.13 L 31.07,33.82 L 30.99,33.50 L 30.96,33.20 L 30.99,32.91 L 31.07,32.65 L 31.20,32.43 L 31.36,32.24 L 31.56,32.11 L 31.77,32.03 L 32.00,32.00 Z" fill="none" stroke="url(#g)" stroke-width="1.5"/>
</svg>
