<?xml version="1.0" encoding="UTF-8"?>
<svg xmlns="http://www.w3.org/2000/svg" width="240" height="48" viewBox="0 0 240 48" role="img" aria-labelledby="title">
  <title id="title">Technarion</title>
  <defs>
    <linearGradient id="grad" x1="0" y1="0" x2="1" y2="1">
      <stop offset="0" stop-color="#00bfa5"/>
      <stop offset="1" stop-color="#35e1cb"/>
    </linearGradient>
  </defs>
  <!-- Round icon container with Maurer Rose -->
  <g transform="translate(0,0)">
    <circle cx="24" cy="24" r="22" fill="#0e2230" stroke="#00bfa5" stroke-width="2"/>
    <path d="M 24.00,24.00 L 24.16,24.02 L 24.30,24.08 L 24.44,24.17 L 24.55,24.29 L 24.64,24.45 L 24.70,24.63 L 24.72,24.83 L 24.70,25.04 L 24.64,25.26 L 24.54,25.47 L 24.39,25.68 L 24.20,25.87 L 23.96,26.04 L 23.69,26.17 L 23.39,26.27 L 23.06,26.32 L 22.71,26.33 L 22.34,26.28 L 21.97,26.17 L 21.61,26.01 L 21.25,25.79 L 20.91,25.51 L 20.61,25.17 L 20.34,24.78 L 20.12,24.34 L 19.95,23.86 L 19.85,23.34 L 19.81,22.80 L 19.85,22.24 L 19.97,21.67 L 20.16,21.11 L 20.43,20.55 L 20.78,20.03 L 21.21,19.54 L 21.71,19.09 L 22.28,18.71 L 22.91,18.39 L 23.59,18.15 L 24.31,18.00 L 25.07,17.94 L 25.84,17.97 L 26.62,18.11 L 27.40,18.35 L 28.15,18.69 L 28.87,19.13 L 29.54,19.67 L 30.15,20.30 L 30.69,21.02 L 31.14,21.82 L 31.49,22.68 L 31.74,23.59 L 31.87,24.55 L 31.88,25.53 L 31.77,26.53 L 31.53,27.51 L 31.17,28.48 L 30.67,29.41 L 30.06,30.28 L 29.33,31.08 L 28.50,31.79 L 27.57,32.41 L 26.56,32.91 L 25.47,33.29 L 24.33,33.53 L 23.16,33.63 L 21.96,33.59 L 20.77,33.39 L 19.59,33.05 L 18.45,32.55 L 17.36,31.91 L 16.36,31.13 L 15.44,30.22 L 14.64,29.19 L 13.96,28.06 L 13.42,26.84 L 13.03,25.54 L 12.80,24.20 L 12.73,22.82 L 12.84,21.42 L 13.13,20.04 L 13.58,18.69 L 14.21,17.40 L 15.00,16.18 L 15.94,15.05 L 17.02,14.04 L 18.24,13.16 L 19.56,12.43 L 20.98,11.87 L 22.46,11.48 L 24.00,11.27 L 25.56,11.26 L 27.13,11.44 L 28.68,11.81 L 30.18,12.38 L 31.61,13.13 L 32.95,14.06 L 34.17,15.16 L 35.26,16.40 L 36.20,17.79 L 36.96,19.28 L 37.53,20.88 L 37.91,22.54 L 38.08,24.25 L 38.05,25.97 L 37.79,27.70 L 37.33,29.39 L 36.66,31.01 L 35.78,32.56 L 34.72,33.99 L 33.48,35.30 L 32.08,36.44 L 30.54,37.41 L 28.89,38.19 L 27.14,38.77 L 25.32,39.12 L 23.47,39.26 L 21.60,39.16 L 19.75,38.83 L 17.94,38.28 L 16.21,37.50 L 14.57,36.51 L 13.06,35.32 L 11.71,33.96 L 10.52,32.42 L 9.53,30.75 L 8.75,28.96 L 8.19,27.07 L 7.86,25.13 L 7.78,23.15 L 7.93,21.17 L 8.34,19.21 L 8.98,17.31 L 9.85,15.50 L 10.94,13.80 L 12.24,12.24 L 13.73,10.85 L 15.37,9.64 L 17.17,8.65 L 19.07,7.88 L 21.06,7.34 L 23.11,7.06 L 25.19,7.02 L 27.26,7.24 L 29.29,7.72 L 31.26,8.44 L 33.12,9.40 L 34.86,10.59 L 36.45,11.98 L 37.85,13.56 L 39.06,15.31 L 40.04,17.19 L 40.79,19.19 L 41.29,21.26 L 41.53,23.39 L 41.51,25.53 L 41.22,27.66 L 40.68,29.74 L 39.88,31.75 L 38.84,33.64 L 37.58,35.39 L 36.11,36.98 L 34.45,38.38 L 32.63,39.57 L 30.68,40.53 L 28.62,41.24 L 26.49,41.69 L 24.31,41.88 L 22.13,41.80 L 19.97,41.46 L 17.87,40.85 L 15.85,39.99 L 13.96,38.89 L 12.21,37.56 L 10.64,36.03 L 9.27,34.31 L 8.12,32.45 L 7.20,30.45 L 6.54,28.35 L 6.13,26.19 L 6.00,24.00 L 6.13,21.81 L 6.54,19.65 L 7.20,17.55 L 8.12,15.55 L 9.27,13.69 L 10.64,11.97 L 12.21,10.44 L 13.96,9.11 L 15.85,8.01 L 17.87,7.15 L 19.97,6.54 L 22.13,6.20 L 24.31,6.12 L 26.49,6.31 L 28.62,6.76 L 30.68,7.47 L 32.63,8.43 L 34.45,9.62 L 36.11,11.02 L 37.58,12.61 L 38.84,14.36 L 39.88,16.25 L 40.68,18.26 L 41.22,20.34 L 41.51,22.47 L 41.53,24.61 L 41.29,26.74 L 40.79,28.81 L 40.04,30.81 L 39.06,32.69 L 37.85,34.44 L 36.45,36.02 L 34.86,37.41 L 33.12,38.60 L 31.26,39.56 L 29.29,40.28 L 27.26,40.76 L 25.19,40.98 L 23.11,40.94 L 21.06,40.66 L 19.07,40.12 L 17.17,39.35 L 15.37,38.36 L 13.73,37.15 L 12.24,35.76 L 10.94,34.20 L 9.85,32.50 L 8.98,30.69 L 8.34,28.79 L 7.93,26.83 L 7.78,24.85 L 7.86,22.87 L 8.19,20.93 L 8.75,19.04 L 9.53,17.25 L 10.52,15.58 L 11.71,14.04 L 13.06,12.68 L 14.57,11.49 L 16.21,10.50 L 17.94,9.72 L 19.75,9.17 L 21.60,8.84 L 23.47,8.74 L 25.32,8.88 L 27.14,9.23 L 28.89,9.81 L 30.54,10.59 L 32.08,11.56 L 33.48,12.70 L 34.72,14.01 L 35.78,15.44 L 36.66,16.99 L 37.33,18.61 L 37.79,20.30 L 38.05,22.03 L 38.08,23.75 L 37.91,25.46 L 37.53,27.12 L 36.96,28.72 L 36.20,30.21 L 35.26,31.60 L 34.17,32.84 L 32.95,33.94 L 31.61,34.87 L 30.18,35.62 L 28.68,36.19 L 27.13,36.56 L 25.56,36.74 L 24.00,36.73 L 22.46,36.52 L 20.98,36.13 L 19.56,35.57 L 18.24,34.84 L 17.02,33.96 L 15.94,32.95 L 15.00,31.82 L 14.21,30.60 L 13.58,29.31 L 13.13,27.96 L 12.84,26.58 L 12.73,25.18 L 12.80,23.80 L 13.03,22.46 L 13.42,21.16 L 13.96,19.94 L 14.64,18.81 L 15.44,17.78 L 16.36,16.87 L 17.36,16.09 L 18.45,15.45 L 19.59,14.95 L 20.77,14.61 L 21.96,14.41 L 23.16,14.37 L 24.33,14.47 L 25.47,14.71 L 26.56,15.09 L 27.57,15.59 L 28.50,16.21 L 29.33,16.92 L 30.06,17.72 L 30.67,18.59 L 31.17,19.52 L 31.53,20.49 L 31.77,21.47 L 31.88,22.47 L 31.87,23.45 L 31.74,24.41 L 31.49,25.32 L 31.14,26.18 L 30.69,26.98 L 30.15,27.70 L 29.54,28.33 L 28.87,28.87 L 28.15,29.31 L 27.40,29.65 L 26.62,29.89 L 25.84,30.03 L 25.07,30.06 L 24.31,30.00 L 23.59,29.85 L 22.91,29.61 L 22.28,29.29 L 21.71,28.91 L 21.21,28.46 L 20.78,27.97 L 20.43,27.45 L 20.16,26.89 L 19.97,26.33 L 19.85,25.76 L 19.81,25.20 L 19.85,24.66 L 19.95,24.14 L 20.12,23.66 L 20.34,23.22 L 20.61,22.83 L 20.91,22.49 L 21.25,22.21 L 21.61,21.99 L 21.97,21.83 L 22.34,21.72 L 22.71,21.67 L 23.06,21.68 L 23.39,21.73 L 23.69,21.83 L 23.96,21.96 L 24.20,22.13 L 24.39,22.32 L 24.54,22.53 L 24.64,22.74 L 24.70,22.96 L 24.72,23.17 L 24.70,23.37 L 24.64,23.55 L 24.55,23.71 L 24.44,23.83 L 24.30,23.92 L 24.16,23.98 L 24.00,24.00 L 23.84,23.98 L 23.70,23.92 L 23.56,23.83 L 23.45,23.71 L 23.36,23.55 L 23.30,23.37 L 23.28,23.17 L 23.30,22.96 L 23.36,22.74 L 23.46,22.53 L 23.61,22.32 L 23.80,22.13 L 24.04,21.96 L 24.31,21.83 L 24.61,21.73 L 24.94,21.68 L 25.29,21.67 L 25.66,21.72 L 26.03,21.83 L 26.39,21.99 L 26.75,22.21 L 27.09,22.49 L 27.39,22.83 L 27.66,23.22 L 27.88,23.66 L 28.05,24.14 L 28.15,24.66 L 28.19,25.20 L 28.15,25.76 L 28.03,26.33 L 27.84,26.89 L 27.57,27.45 L 27.22,27.97 L 26.79,28.46 L 26.29,28.91 L 25.72,29.29 L 25.09,29.61 L 24.41,29.85 L 23.69,30.00 L 22.93,30.06 L 22.16,30.03 L 21.38,29.89 L 20.60,29.65 L 19.85,29.31 L 19.13,28.87 L 18.46,28.33 L 17.85,27.70 L 17.31,26.98 L 16.86,26.18 L 16.51,25.32 L 16.26,24.41 L 16.13,23.45 L 16.12,22.47 L 16.23,21.47 L 16.47,20.49 L 16.83,19.52 L 17.33,18.59 L 17.94,17.72 L 18.67,16.92 L 19.50,16.21 L 20.43,15.59 L 21.44,15.09 L 22.53,14.71 L 23.67,14.47 L 24.84,14.37 L 26.04,14.41 L 27.23,14.61 L 28.41,14.95 L 29.55,15.45 L 30.64,16.09 L 31.64,16.87 L 32.56,17.78 L 33.36,18.81 L 34.04,19.94 L 34.58,21.16 L 34.97,22.46 L 35.20,23.80 L 35.27,25.18 L 35.16,26.58 L 34.87,27.96 L 34.42,29.31 L 33.79,30.60 L 33.00,31.82 L 32.06,32.95 L 30.98,33.96 L 29.76,34.84 L 28.44,35.57 L 27.02,36.13 L 25.54,36.52 L 24.00,36.73 L 22.44,36.74 L 20.87,36.56 L 19.32,36.19 L 17.82,35.62 L 16.39,34.87 L 15.05,33.94 L 13.83,32.84 L 12.74,31.60 L 11.80,30.21 L 11.04,28.72 L 10.47,27.12 L 10.09,25.46 L 9.92,23.75 L 9.95,22.03 L 10.21,20.30 L 10.67,18.61 L 11.34,16.99 L 12.22,15.44 L 13.28,14.01 L 14.52,12.70 L 15.92,11.56 L 17.46,10.59 L 19.11,9.81 L 20.86,9.23 L 22.68,8.88 L 24.53,8.74 L 26.40,8.84 L 28.25,9.17 L 30.06,9.72 L 31.79,10.50 L 33.43,11.49 L 34.94,12.68 L 36.29,14.04 L 37.48,15.58 L 38.47,17.25 L 39.25,19.04 L 39.81,20.93 L 40.14,22.87 L 40.22,24.85 L 40.07,26.83 L 39.66,28.79 L 39.02,30.69 L 38.15,32.50 L 37.06,34.20 L 35.76,35.76 L 34.27,37.15 L 32.63,38.36 L 30.83,39.35 L 28.93,40.12 L 26.94,40.66 L 24.89,40.94 L 22.81,40.98 L 20.74,40.76 L 18.71,40.28 L 16.74,39.56 L 14.88,38.60 L 13.14,37.41 L 11.55,36.02 L 10.15,34.44 L 8.94,32.69 L 7.96,30.81 L 7.21,28.81 L 6.71,26.74 L 6.47,24.61 L 6.49,22.47 L 6.78,20.34 L 7.32,18.26 L 8.12,16.25 L 9.16,14.36 L 10.42,12.61 L 11.89,11.02 L 13.55,9.62 L 15.37,8.43 L 17.32,7.47 L 19.38,6.76 L 21.51,6.31 L 23.69,6.12 L 25.87,6.20 L 28.03,6.54 L 30.13,7.15 L 32.15,8.01 L 34.04,9.11 L 35.79,10.44 L 37.36,11.97 L 38.73,13.69 L 39.88,15.55 L 40.80,17.55 L 41.46,19.65 L 41.87,21.81 L 42.00,24.00 L 41.87,26.19 L 41.46,28.35 L 40.80,30.45 L 39.88,32.45 L 38.73,34.31 L 37.36,36.03 L 35.79,37.56 L 34.04,38.89 L 32.15,39.99 L 30.13,40.85 L 28.03,41.46 L 25.87,41.80 L 23.69,41.88 L 21.51,41.69 L 19.38,41.24 L 17.32,40.53 L 15.37,39.57 L 13.55,38.38 L 11.89,36.98 L 10.42,35.39 L 9.16,33.64 L 8.12,31.75 L 7.32,29.74 L 6.78,27.66 L 6.49,25.53 L 6.47,23.39 L 6.71,21.26 L 7.21,19.19 L 7.96,17.19 L 8.94,15.31 L 10.15,13.56 L 11.55,11.98 L 13.14,10.59 L 14.88,9.40 L 16.74,8.44 L 18.71,7.72 L 20.74,7.24 L 22.81,7.02 L 24.89,7.06 L 26.94,7.34 L 28.93,7.88 L 30.83,8.65 L 32.63,9.64 L 34.27,10.85 L 35.76,12.24 L 37.06,13.80 L 38.15,15.50 L 39.02,17.31 L 39.66,19.21 L 40.07,21.17 L 40.22,23.15 L 40.14,25.13 L 39.81,27.07 L 39.25,28.96 L 38.47,30.75 L 37.48,32.42 L 36.29,33.96 L 34.94,35.32 L 33.43,36.51 L 31.79,37.50 L 30.06,38.28 L 28.25,38.83 L 26.40,39.16 L 24.53,39.26 L 22.68,39.12 L 20.86,38.77 L 19.11,38.19 L 17.46,37.41 L 15.92,36.44 L 14.52,35.30 L 13.28,33.99 L 12.22,32.56 L 11.34,31.01 L 10.67,29.39 L 10.21,27.70 L 9.95,25.97 L 9.92,24.25 L 10.09,22.54 L 10.47,20.88 L 11.04,19.28 L 11.80,17.79 L 12.74,16.40 L 13.83,15.16 L 15.05,14.06 L 16.39,13.13 L 17.82,12.38 L 19.32,11.81 L 20.87,11.44 L 22.44,11.26 L 24.00,11.27 L 25.54,11.48 L 27.02,11.87 L 28.44,12.43 L 29.76,13.16 L 30.98,14.04 L 32.06,15.05 L 33.00,16.18 L 33.79,17.40 L 34.42,18.69 L 34.87,20.04 L 35.16,21.42 L 35.27,22.82 L 35.20,24.20 L 34.97,25.54 L 34.58,26.84 L 34.04,28.06 L 33.36,29.19 L 32.56,30.22 L 31.64,31.13 L 30.64,31.91 L 29.55,32.55 L 28.41,33.05 L 27.23,33.39 L 26.04,33.59 L 24.84,33.63 L 23.67,33.53 L 22.53,33.29 L 21.44,32.91 L 20.43,32.41 L 19.50,31.79 L 18.67,31.08 L 17.94,30.28 L 17.33,29.41 L 16.83,28.48 L 16.47,27.51 L 16.23,26.53 L 16.12,25.53 L 16.13,24.55 L 16.26,23.59 L 16.51,22.68 L 16.86,21.82 L 17.31,21.02 L 17.85,20.30 L 18.46,19.67 L 19.13,19.13 L 19.85,18.69 L 20.60,18.35 L 21.38,18.11 L 22.16,17.97 L 22.93,17.94 L 23.69,18.00 L 24.41,18.15 L 25.09,18.39 L 25.72,18.71 L 26.29,19.09 L 26.79,19.54 L 27.22,20.03 L 27.57,20.55 L 27.84,21.11 L 28.03,21.67 L 28.15,22.24 L 28.19,22.80 L 28.15,23.34 L 28.05,23.86 L 27.88,24.34 L 27.66,24.78 L 27.39,25.17 L 27.09,25.51 L 26.75,25.79 L 26.39,26.01 L 26.03,26.17 L 25.66,26.28 L 25.29,26.33 L 24.94,26.32 L 24.61,26.27 L 24.31,26.17 L 24.04,26.04 L 23.80,25.87 L 23.61,25.68 L 23.46,25.47 L 23.36,25.26 L 23.30,25.04 L 23.28,24.83 L 23.30,24.63 L 23.36,24.45 L 23.45,24.29 L 23.56,24.17 L 23.70,24.08 L 23.84,24.02 L 24.00,24.00 Z" fill="none" stroke="url(#grad)" stroke-width="1.5"/>
  </g>
  <!-- Wordmark -->
  <g font-family="system-ui,-apple-system,'Segoe UI',Roboto,Ubuntu,Arial,sans-serif" font-size="24" font-weight="800" letter-spacing=".4">
    <text x="58" y="31" fill="#eef2f3">Technarion</text>
  </g>
</svg>
